<svg width="12" height="12" viewBox="0 0 12 12" fill="none" xmlns="http://www.w3.org/2000/svg">
    <path
        d="M3.21368 0.796692C3.06291 0.947467 2.97055 1.15699 2.97085 1.3871L2.97085 1.48838C2.97085 1.94917 3.34388 2.32221 3.80409 2.32162L8.35701 2.32162L0.655256 10.0234C0.329987 10.3486 0.329987 10.8766 0.655256 11.2019C0.980525 11.5272 1.5085 11.5272 1.83377 11.2019L9.53552 3.50013V8.05305C9.53552 8.51385 9.90856 8.88689 10.3688 8.8863H10.47C10.9308 8.8863 11.3039 8.51326 11.3033 8.05305V1.3871C11.3033 0.9263 10.9303 0.553264 10.47 0.553854L3.80409 0.553854C3.57369 0.553854 3.36446 0.645916 3.21368 0.796692Z"
        fill="#34C759" />
</svg>
    