<svg width="16" height="11" viewBox="0 0 16 11" fill="none" xmlns="http://www.w3.org/2000/svg">
    <path
        d="M11.5802 1.22913L15.7014 5.2183L15.7148 5.23127L15.722 5.23725L15.7282 5.24423L15.7354 5.25221L15.7406 5.2582L15.7488 5.26718L15.7571 5.27715L15.7725 5.29811L15.7839 5.31208L15.7942 5.32606L15.8045 5.34103L15.8045 5.34703L15.8138 5.35601L15.8138 5.36301L15.8138 5.37101L15.8252 5.37998L15.8252 5.38598L15.8386 5.39794C15.9186 5.5432 15.9473 5.71005 15.9203 5.87277C15.8932 6.03549 15.8119 6.18503 15.6888 6.29834L11.6041 10.2891C11.459 10.426 11.2645 10.5021 11.0624 10.5008C10.8603 10.4995 10.6668 10.4211 10.5236 10.2823C10.3804 10.1436 10.2989 9.95563 10.2967 9.75899C10.2946 9.56234 10.3719 9.37272 10.5119 9.23097L13.299 6.50463L0.772813 6.53758C0.568398 6.53812 0.372147 6.45962 0.227234 6.31935C0.0823206 6.17907 0.000614691 5.98852 9.13638e-05 5.78961C-0.000431964 5.5907 0.0802701 5.39972 0.224443 5.25869C0.368617 5.11766 0.564451 5.03812 0.768867 5.03759L13.2951 5.00463L10.4937 2.29199C10.4178 2.22353 10.3568 2.14089 10.3145 2.049C10.2721 1.95711 10.2492 1.85786 10.2471 1.75716C10.245 1.65646 10.2638 1.55638 10.3023 1.46289C10.3408 1.3694 10.3983 1.28442 10.4713 1.21301C10.5443 1.1416 10.6313 1.08522 10.7272 1.04725C10.8231 1.00928 10.9258 0.990481 11.0293 0.991986C11.1328 0.99349 11.2349 1.01526 11.3296 1.05601C11.4242 1.09675 11.5095 1.15563 11.5802 1.22913V1.22913Z"
        fill="#848484" />
</svg>
    