<svg width="129" height="18" viewBox="0 0 129 18" fill="none" xmlns="http://www.w3.org/2000/svg">
    <path
        d="M8.998 17.264C6.63667 17.264 4.67867 16.4867 3.124 14.932C1.56933 13.3773 0.792 11.4633 0.792 9.19C0.792 6.91667 1.56933 5.00267 3.124 3.448C4.67867 1.89333 6.63667 1.116 8.998 1.116C10.7433 1.116 12.3347 1.63667 13.772 2.678C15.224 3.70467 16.1627 5.06133 16.588 6.748H12.782C12.4447 6.02933 11.9313 5.47933 11.242 5.098C10.5527 4.702 9.80467 4.504 8.998 4.504C7.59 4.504 6.45333 4.95133 5.588 5.846C4.73733 6.74067 4.312 7.85533 4.312 9.19C4.312 10.5247 4.73733 11.6393 5.588 12.534C6.45333 13.4287 7.59 13.876 8.998 13.876C9.80467 13.876 10.5527 13.6853 11.242 13.304C11.9313 12.908 12.4447 12.3507 12.782 11.632H16.588C16.1627 13.3187 15.224 14.6827 13.772 15.724C12.3347 16.7507 10.7433 17.264 8.998 17.264ZM22.513 17.242C21.1784 17.242 20.1517 16.7947 19.433 15.9C18.7144 15.0053 18.355 13.7953 18.355 12.27V6H21.677V11.698C21.677 13.3847 22.2417 14.228 23.371 14.228C24.7497 14.228 25.439 13.2673 25.439 11.346V6H28.761V17H25.439V15.878C24.8084 16.7873 23.833 17.242 22.513 17.242ZM35.9291 17.242C34.4624 17.242 33.2524 16.8827 32.2991 16.164C31.3604 15.4307 30.8618 14.514 30.8031 13.414H34.3011C34.3304 13.8393 34.5064 14.1693 34.8291 14.404C35.1518 14.624 35.5551 14.734 36.0391 14.734C36.8604 14.734 37.2711 14.4993 37.2711 14.03C37.2711 13.7953 37.1758 13.6193 36.9851 13.502C36.8091 13.37 36.4864 13.238 36.0171 13.106L33.7951 12.534C31.9471 12.05 31.0231 10.8987 31.0231 9.08C31.0231 8.09733 31.4338 7.298 32.2551 6.682C33.0764 6.066 34.1984 5.758 35.6211 5.758C36.8824 5.758 37.9311 6.07333 38.7671 6.704C39.6178 7.32 40.0871 8.19267 40.1751 9.322H36.8311C36.6991 8.64733 36.2738 8.31 35.5551 8.31C34.8071 8.31 34.4331 8.54467 34.4331 9.014C34.4331 9.42467 34.8071 9.71067 35.5551 9.872L37.5571 10.4C38.6571 10.6933 39.4491 11.1187 39.9331 11.676C40.4171 12.2333 40.6591 12.9593 40.6591 13.854C40.6591 14.866 40.2191 15.6873 39.3391 16.318C38.4591 16.934 37.3224 17.242 35.9291 17.242ZM48.0306 17.132C46.74 17.132 45.6766 16.78 44.8406 16.076C44.0193 15.3573 43.6086 14.3233 43.6086 12.974V8.882H41.4086V6H43.6086V2.942H46.9306V6H50.0106V8.882H46.9306V12.292C46.9306 12.952 47.0773 13.4287 47.3706 13.722C47.664 14.0153 48.1406 14.162 48.8006 14.162C49.2993 14.162 49.7026 14.096 50.0106 13.964V16.912C49.5266 17.0587 48.8666 17.132 48.0306 17.132ZM61.1557 15.592C60.0264 16.692 58.6624 17.242 57.0637 17.242C55.465 17.242 54.101 16.692 52.9717 15.592C51.8424 14.4773 51.2777 13.1133 51.2777 11.5C51.2777 9.88667 51.8424 8.53 52.9717 7.43C54.101 6.31533 55.465 5.758 57.0637 5.758C58.6624 5.758 60.0264 6.31533 61.1557 7.43C62.285 8.53 62.8497 9.88667 62.8497 11.5C62.8497 13.1133 62.285 14.4773 61.1557 15.592ZM55.3037 13.414C55.773 13.898 56.3597 14.14 57.0637 14.14C57.7677 14.14 58.347 13.898 58.8017 13.414C59.271 12.93 59.5057 12.292 59.5057 11.5C59.5057 10.708 59.271 10.07 58.8017 9.586C58.347 9.102 57.7677 8.86 57.0637 8.86C56.3597 8.86 55.773 9.102 55.3037 9.586C54.849 10.07 54.6217 10.708 54.6217 11.5C54.6217 12.292 54.849 12.93 55.3037 13.414ZM78.6653 17V11.302C78.6653 9.61533 78.1373 8.772 77.0813 8.772C75.82 8.772 75.16 9.68867 75.1013 11.522V17H71.7793V11.302C71.7793 9.61533 71.2513 8.772 70.1953 8.772C69.5793 8.772 69.0953 9.014 68.7433 9.498C68.3913 9.96733 68.2153 10.686 68.2153 11.654V17H64.8933V6H68.2153V7.122C68.9193 6.21267 69.858 5.758 71.0313 5.758C72.5713 5.758 73.7006 6.40333 74.4193 7.694C74.742 7.06333 75.226 6.58667 75.8713 6.264C76.5166 5.92667 77.162 5.758 77.8073 5.758C79.142 5.758 80.1686 6.198 80.8873 7.078C81.6206 7.958 81.9873 9.17533 81.9873 10.73V17H78.6653ZM86.223 4.504C85.6657 4.504 85.1817 4.306 84.771 3.91C84.3603 3.49933 84.155 3.008 84.155 2.436C84.155 1.864 84.3603 1.38 84.771 0.983999C85.1817 0.573332 85.6657 0.367999 86.223 0.367999C86.8097 0.367999 87.301 0.573332 87.697 0.983999C88.1077 1.38 88.313 1.864 88.313 2.436C88.313 3.008 88.1077 3.49933 87.697 3.91C87.301 4.306 86.8097 4.504 86.223 4.504ZM84.573 17V6H87.895V17H84.573ZM90.1696 17V14.404L94.9876 8.992H90.2356V6H99.2996V8.618L94.4816 14.008H99.4756V17H90.1696ZM106.694 17.242C104.993 17.242 103.592 16.6993 102.492 15.614C101.407 14.5287 100.864 13.15 100.864 11.478C100.864 9.83533 101.414 8.47133 102.514 7.386C103.629 6.30067 105.022 5.758 106.694 5.758C107.501 5.758 108.256 5.89733 108.96 6.176C109.679 6.45467 110.309 6.858 110.852 7.386C111.409 7.914 111.842 8.596 112.15 9.432C112.458 10.268 112.597 11.214 112.568 12.27H104.098C104.157 12.8713 104.421 13.3773 104.89 13.788C105.359 14.184 106.019 14.382 106.87 14.382C107.354 14.382 107.794 14.2867 108.19 14.096C108.586 13.8907 108.85 13.6413 108.982 13.348H112.458C112.106 14.5067 111.402 15.4453 110.346 16.164C109.29 16.8827 108.073 17.242 106.694 17.242ZM106.606 8.398C105.975 8.398 105.447 8.55933 105.022 8.882C104.611 9.20467 104.333 9.63 104.186 10.158H108.894C108.733 9.55667 108.432 9.11667 107.992 8.838C107.567 8.54467 107.105 8.398 106.606 8.398ZM114.636 17V1.38H118.134V17H114.636ZM126.599 17.132C125.308 17.132 124.245 16.78 123.409 16.076C122.588 15.3573 122.177 14.3233 122.177 12.974V8.882H119.977V6H122.177V2.942H125.499V6H128.579V8.882H125.499V12.292C125.499 12.952 125.646 13.4287 125.939 13.722C126.232 14.0153 126.709 14.162 127.369 14.162C127.868 14.162 128.271 14.096 128.579 13.964V16.912C128.095 17.0587 127.435 17.132 126.599 17.132Z"
        fill="#4D4D4F" />
</svg>
    