<svg width="17" height="17" viewBox="0 0 17 17" fill="none" xmlns="http://www.w3.org/2000/svg">
    <rect width="17" height="17" rx="8.5" fill="#EFBB40" />
    <path
        d="M10.5492 5.65062L12.8716 8.17455L12.8791 8.18275L12.8832 8.18653L12.8866 8.19095L12.8907 8.196L12.8936 8.19978L12.8983 8.20546L12.9029 8.21177L12.9116 8.22502L12.918 8.23386L12.9238 8.24269L12.9296 8.25216L12.9296 8.25594L12.9348 8.26162L12.9348 8.26604L12.9348 8.27109L12.9412 8.27676L12.9412 8.28055L12.9488 8.28812C12.9938 8.37991 13.0097 8.48524 12.9942 8.58786C12.9787 8.69049 12.9325 8.78472 12.8628 8.85601L10.5492 11.3673C10.467 11.4535 10.357 11.5011 10.2428 11.5C10.1286 11.4988 10.0194 11.449 9.93874 11.3612C9.85804 11.2735 9.81229 11.1547 9.81136 11.0307C9.81042 10.9066 9.85436 10.7871 9.93372 10.6978L11.5124 8.9822L4.43545 8.9822C4.31996 8.9822 4.2092 8.93234 4.12754 8.84359C4.04588 8.75484 4 8.63447 4 8.50896C4 8.38345 4.04588 8.26309 4.12754 8.17434C4.2092 8.08559 4.31996 8.03573 4.43545 8.03573L11.5124 8.03573L9.93372 6.31946C9.89094 6.27614 9.85663 6.22389 9.83283 6.16584C9.80903 6.10779 9.79623 6.04513 9.7952 5.98158C9.79417 5.91804 9.80492 5.85493 9.82682 5.796C9.84872 5.73707 9.88132 5.68355 9.92267 5.63861C9.96402 5.59367 10.0133 5.55824 10.0675 5.53444C10.1217 5.51064 10.1798 5.49895 10.2383 5.50007C10.2967 5.5012 10.3544 5.5151 10.4078 5.54097C10.4612 5.56683 10.5093 5.60413 10.5492 5.65062Z"
        fill="white" fill-opacity="0.85" />
</svg>
    