<svg width="15" height="24" viewBox="0 0 15 24" fill="none" xmlns="http://www.w3.org/2000/svg">
    <path fill-rule="evenodd" clip-rule="evenodd"
        d="M3.51992 23.7812C3.80915 23.9238 4.12704 23.9986 4.44949 24C4.73491 23.9978 5.01656 23.9346 5.27551 23.8146C5.53447 23.6945 5.76473 23.5204 5.95082 23.304L14.4268 13.7627C14.6448 13.5171 14.8005 13.2228 14.8808 12.9045C14.9611 12.5861 14.9636 12.2531 14.8882 11.9336C14.8128 11.6141 14.6616 11.3174 14.4474 11.0686C14.2332 10.8197 13.9622 10.6261 13.6575 10.504L10.7335 9.33333L12.5002 2.572C12.5843 2.27431 12.5976 1.96107 12.539 1.65731C12.4805 1.35356 12.3516 1.06772 12.1628 0.822667C11.9654 0.568001 11.7126 0.36159 11.4236 0.219061C11.1347 0.0765316 10.817 0.00162071 10.4948 0C10.2094 0.00216269 9.92775 0.0653928 9.66879 0.185441C9.40984 0.30549 9.17958 0.479576 8.99348 0.696L0.516152 10.232C0.298179 10.4775 0.142469 10.7719 0.0621654 11.0902C-0.018138 11.4086 -0.0206781 11.7415 0.0547595 12.0611C0.130197 12.3806 0.281398 12.6773 0.495601 12.9261C0.709804 13.1749 0.980721 13.3686 1.28549 13.4907L4.20949 14.6667L2.44282 21.428C2.35857 21.7257 2.3452 22.0389 2.40378 22.3427C2.46236 22.6465 2.59126 22.9323 2.78015 23.1773C2.97771 23.4322 3.23069 23.6387 3.51992 23.7812Z"
        fill="#EFBB40" />
</svg>
    