<svg width="25" height="12" viewBox="0 0 25 12" fill="none" xmlns="http://www.w3.org/2000/svg">
    <g opacity="0.35">
        <path
            d="M19.666 0.833008H3.00001C1.80321 0.833008 0.833008 1.80321 0.833008 3.00001V8.99901C0.833008 10.1958 1.80321 11.166 3.00001 11.166H19.666C20.8628 11.166 21.833 10.1958 21.833 8.99901V3.00001C21.833 1.80321 20.8628 0.833008 19.666 0.833008Z"
            stroke="black" stroke-miterlimit="10" />
    </g>
    <path opacity="0.4"
        d="M23.333 4V8C23.7266 7.8343 24.0626 7.55614 24.2988 7.20038C24.535 6.84461 24.661 6.42705 24.661 6C24.661 5.57295 24.535 5.15539 24.2988 4.79962C24.0626 4.44386 23.7266 4.1657 23.333 4"
        fill="black" />
    <path
        d="M3.66601 2.33301H19C19.3535 2.33301 19.6926 2.47345 19.9426 2.72343C20.1926 2.97342 20.333 3.31247 20.333 3.66601V8.33301C20.333 8.68654 20.1926 9.0256 19.9426 9.27558C19.6926 9.52557 19.3535 9.66601 19 9.66601H3.66601C3.31247 9.66601 2.97342 9.52557 2.72343 9.27558C2.47345 9.0256 2.33301 8.68654 2.33301 8.33301V3.66601C2.33301 3.31247 2.47345 2.97342 2.72343 2.72343C2.97342 2.47345 3.31247 2.33301 3.66601 2.33301Z"
        fill="black" />
</svg>
    