<svg width="160" height="23" viewBox="0 0 160 23" fill="none" xmlns="http://www.w3.org/2000/svg">
    <path
        d="M11.789 22.6846C11.4882 22.6846 11.19 22.6747 10.9037 22.6537C10.2738 22.5994 9.68279 22.3455 9.2288 21.9343C8.77481 21.5231 8.48517 20.9794 8.40799 20.3933L8.31389 19.7858C8.26809 19.5959 8.17631 19.4184 8.04558 19.2667C7.91486 19.1151 7.74866 18.9934 7.55975 18.9111C7.3954 18.8282 7.23238 18.7403 7.07599 18.6488C6.83452 18.5021 6.5542 18.4207 6.26618 18.4137C6.13659 18.4124 6.00791 18.4342 5.88712 18.4781L5.2748 18.7057C4.92462 18.8353 4.55141 18.902 4.17474 18.9024C3.73447 18.9092 3.29925 18.8141 2.90794 18.6257C2.51663 18.4372 2.18141 18.1612 1.9322 17.8223C1.59842 17.3643 1.3016 16.8838 1.0442 16.3847C0.779993 15.8484 0.720465 15.2439 0.875518 14.6717C1.03057 14.0995 1.39085 13.5941 1.89641 13.2397L2.41464 12.8561C2.56817 12.7249 2.68733 12.5625 2.76294 12.3814C2.83855 12.2004 2.86857 12.0055 2.85069 11.8119C2.85069 11.734 2.85069 11.6474 2.85069 11.5496C2.85069 11.4519 2.85069 11.3653 2.85069 11.2873C2.86857 11.0937 2.83855 10.8989 2.76294 10.7178C2.68733 10.5368 2.56817 10.3743 2.41464 10.2431L1.89641 9.85957C1.39105 9.50495 1.03092 8.99956 0.875884 8.42741C0.720846 7.85527 0.780242 7.25082 1.0442 6.71455C1.30138 6.21533 1.59821 5.73477 1.9322 5.2769C2.18141 4.93802 2.51663 4.66203 2.90794 4.47356C3.29925 4.28509 3.73447 4.19001 4.17474 4.1968C4.55141 4.19722 4.92462 4.26396 5.2748 4.39352L5.88712 4.62117C6.00791 4.66503 6.13659 4.68687 6.26618 4.6855C6.5542 4.67852 6.83452 4.59715 7.07599 4.45043C7.23238 4.35888 7.3954 4.2698 7.55975 4.18814C7.74878 4.10594 7.91507 3.98432 8.04582 3.83267C8.17657 3.68102 8.26828 3.50338 8.31389 3.31342L8.40799 2.70718C8.48508 2.12084 8.77462 1.57672 9.22856 1.16512C9.68251 0.753517 10.2736 0.499178 10.9037 0.444305C11.1953 0.42451 11.4921 0.414612 11.789 0.414612C12.0859 0.414612 12.3841 0.42451 12.6757 0.444305C13.3055 0.498951 13.8964 0.753085 14.3502 1.1645C14.8039 1.57591 15.0932 2.11984 15.1701 2.70595L15.2655 3.31219C15.3105 3.5022 15.4018 3.67997 15.5324 3.83167C15.663 3.98338 15.8292 4.10494 16.0183 4.1869C16.176 4.26485 16.3351 4.35145 16.5034 4.44919C16.7449 4.59591 17.0252 4.67728 17.3132 4.68427C17.4432 4.6857 17.5724 4.66386 17.6936 4.61993L18.3046 4.39228C18.6548 4.26281 19.028 4.19607 19.4046 4.19556C19.8449 4.18888 20.2801 4.28401 20.6714 4.47247C21.0626 4.66093 21.3979 4.93686 21.6472 5.27566C21.9821 5.73345 22.2798 6.21402 22.5378 6.71331C22.8018 7.24958 22.8612 7.85403 22.7062 8.42618C22.5511 8.99833 22.191 9.50371 21.6856 9.85833L21.1661 10.2419C21.0126 10.3731 20.8936 10.5356 20.8182 10.7166C20.7428 10.8977 20.7131 11.0926 20.7313 11.2861C20.7313 11.3727 20.7313 11.4605 20.7313 11.5484C20.7313 11.6362 20.7313 11.7241 20.7313 11.8107C20.7131 12.0042 20.7428 12.199 20.8182 12.3801C20.8936 12.5612 21.0126 12.7236 21.1661 12.8549L21.6856 13.2384C22.1912 13.5929 22.5515 14.0983 22.7065 14.6705C22.8616 15.2427 22.802 15.8472 22.5378 16.3834C22.2796 16.8826 21.9819 17.3632 21.6472 17.8211C21.3979 18.1599 21.0626 18.4358 20.6714 18.6243C20.2801 18.8127 19.8449 18.9079 19.4046 18.9012C19.028 18.9007 18.6548 18.8339 18.3046 18.7045L17.6936 18.4768C17.5724 18.4329 17.4432 18.411 17.3132 18.4125C17.0252 18.4195 16.7449 18.5008 16.5034 18.6476C16.3337 18.7465 16.176 18.8319 16.0183 18.9098C15.8294 18.992 15.6633 19.1137 15.5327 19.2653C15.4022 19.417 15.3108 19.5947 15.2655 19.7846L15.1701 20.392C15.0934 20.9781 14.8041 21.522 14.3503 21.9332C13.8965 22.3445 13.3055 22.5983 12.6757 22.6524C12.3894 22.6747 12.0912 22.6846 11.789 22.6846ZM6.25823 16.5554C6.91933 16.5647 7.56494 16.7436 8.12436 17.0726C8.27413 17.1579 8.38944 17.221 8.50077 17.2755C8.96572 17.4924 9.36926 17.8088 9.67855 18.1987C9.98785 18.5887 10.1942 19.0413 10.2807 19.5198L10.3749 20.126C10.3884 20.2935 10.4623 20.4517 10.5846 20.5748C10.7069 20.698 10.8703 20.7788 11.0481 20.804C11.2867 20.8201 11.5359 20.8288 11.789 20.8288C12.0422 20.8288 12.2913 20.8201 12.5299 20.804C12.7077 20.7788 12.8711 20.698 12.9934 20.5748C13.1157 20.4517 13.1897 20.2935 13.2032 20.126L13.2973 19.5198C13.3841 19.0413 13.5907 18.5886 13.9002 18.1986C14.2097 17.8086 14.6135 17.4924 15.0786 17.2755C15.1992 17.2149 15.3172 17.1518 15.4563 17.0726C16.0152 16.7435 16.6605 16.5646 17.3212 16.5554C17.7006 16.5544 18.0767 16.6212 18.4292 16.7521L19.0402 16.9798C19.1555 17.0238 19.2787 17.0469 19.4033 17.0478C19.5199 17.0514 19.6357 17.0285 19.7408 16.9811C19.8458 16.9337 19.9369 16.8632 20.0064 16.7756C20.2849 16.3942 20.5326 15.9939 20.7473 15.578C20.8143 15.4224 20.8219 15.25 20.7688 15.0898C20.7157 14.9296 20.6051 14.7914 20.4557 14.6983L19.9361 14.3136C19.5351 14.0053 19.2179 13.6127 19.0106 13.168C18.8032 12.7233 18.7116 12.2391 18.7433 11.755V11.5496V11.3442C18.7117 10.86 18.8034 10.3756 19.0107 9.93073C19.218 9.48584 19.5351 9.09304 19.9361 8.78442L20.4557 8.40088C20.6052 8.30762 20.7158 8.16915 20.7689 8.00874C20.822 7.84832 20.8144 7.67574 20.7473 7.51998C20.5326 7.10409 20.285 6.70377 20.0064 6.32235C19.9369 6.23449 19.8456 6.16371 19.7403 6.11608C19.635 6.06845 19.5189 6.0454 19.402 6.04892C19.2778 6.0499 19.155 6.073 19.0402 6.11697L18.4292 6.34586C18.0762 6.47675 17.6996 6.54352 17.3198 6.54257C16.6595 6.53363 16.0147 6.35467 15.4563 6.02541C15.3371 5.9586 15.2085 5.88808 15.0786 5.82127C14.6135 5.60495 14.2098 5.28914 13.9002 4.89956C13.5907 4.50998 13.3841 4.05766 13.2973 3.57943L13.2032 2.97319C13.191 2.80544 13.1175 2.64669 12.995 2.5235C12.8724 2.4003 12.7082 2.32014 12.5299 2.29643C12.2913 2.28034 12.0422 2.27168 11.789 2.27168C11.5359 2.27168 11.2867 2.28034 11.0481 2.29643C10.8698 2.32014 10.7057 2.4003 10.5831 2.5235C10.4605 2.64669 10.387 2.80544 10.3749 2.97319L10.2807 3.57943C10.1945 4.05767 9.98847 4.51014 9.67938 4.89994C9.37028 5.28974 8.9669 5.60585 8.50209 5.82251C8.38944 5.87818 8.27015 5.94623 8.12569 6.02665C7.56685 6.35583 6.9216 6.53477 6.26088 6.54381C5.88143 6.54408 5.50539 6.4769 5.15286 6.34586L4.54319 6.11697C4.42829 6.07309 4.3055 6.04999 4.18136 6.04892C4.06442 6.0453 3.94829 6.0683 3.84299 6.11593C3.7377 6.16357 3.6464 6.23441 3.57699 6.32235C3.29801 6.70376 3.04991 7.10408 2.83478 7.51998C2.76841 7.67583 2.76114 7.84818 2.81418 8.00842C2.86722 8.16866 2.97738 8.30715 3.12636 8.40088L3.64591 8.78442C4.04709 9.09291 4.36432 9.48569 4.57164 9.93061C4.77897 10.3755 4.8705 10.8599 4.83875 11.3442V11.5496V11.755C4.87061 12.2391 4.77912 12.7234 4.57178 13.1681C4.36444 13.6129 4.04715 14.0054 3.64591 14.3136L3.12636 14.6983C2.9773 14.7917 2.86703 14.93 2.81397 15.0901C2.76091 15.2501 2.76825 15.4224 2.83478 15.578C3.04969 15.994 3.29779 16.3944 3.57699 16.7756C3.64634 16.8632 3.73747 16.9338 3.84252 16.9812C3.94758 17.0286 4.06341 17.0515 4.18004 17.0478C4.30462 17.0469 4.42786 17.0238 4.54319 16.9798L5.15286 16.7521C5.50458 16.6216 5.87973 16.5548 6.25823 16.5554ZM11.789 16.1842C10.8058 16.1842 9.84466 15.912 9.0272 15.402C8.20975 14.892 7.57271 14.1671 7.19669 13.319C6.82067 12.4709 6.72255 11.5378 6.91476 10.6377C7.10696 9.73758 7.58085 8.91089 8.27647 8.26223C8.97209 7.61357 9.85818 7.17209 10.8227 6.99363C11.7871 6.81517 12.7866 6.90775 13.6947 7.25967C14.6028 7.61159 15.3787 8.20702 15.9241 8.97065C16.4696 9.73428 16.7602 10.6318 16.7592 11.5496C16.7578 12.7797 16.2337 13.959 15.3019 14.8288C14.3701 15.6987 13.1068 16.1879 11.789 16.1892V16.1842ZM11.789 8.76091C11.1995 8.76091 10.6231 8.92405 10.1328 9.22972C9.64253 9.53538 9.2603 9.96985 9.03444 10.4782C8.80858 10.9866 8.74921 11.5461 8.86385 12.0859C8.97848 12.6258 9.26198 13.1218 9.6785 13.5113C10.095 13.9008 10.6259 14.1663 11.204 14.2743C11.7821 14.3823 12.3816 14.3279 12.9266 14.1179C13.4716 13.908 13.9377 13.552 14.266 13.0948C14.5943 12.6377 14.7701 12.1 14.7711 11.5496C14.7701 10.8116 14.4556 10.1041 13.8965 9.58229C13.3375 9.06045 12.5796 8.76684 11.789 8.76586V8.76091Z"
        fill="#EFBB40" />
    <path
        d="M40.4053 19.4591C38.044 19.4591 36.086 18.6818 34.5313 17.1271C32.9767 15.5725 32.1993 13.6585 32.1993 11.3851C32.1993 9.1118 32.9767 7.19779 34.5313 5.64313C36.086 4.08846 38.044 3.31113 40.4053 3.31113C42.1507 3.31113 43.742 3.83179 45.1793 4.87313C46.6313 5.8998 47.57 7.25646 47.9953 8.94313H44.1893C43.852 8.22446 43.3387 7.67446 42.6493 7.29313C41.96 6.89713 41.212 6.69913 40.4053 6.69913C38.9973 6.69913 37.8607 7.14646 36.9953 8.04113C36.1447 8.9358 35.7193 10.0505 35.7193 11.3851C35.7193 12.7198 36.1447 13.8345 36.9953 14.7291C37.8607 15.6238 38.9973 16.0711 40.4053 16.0711C41.212 16.0711 41.96 15.8805 42.6493 15.4991C43.3387 15.1031 43.852 14.5458 44.1893 13.8271H47.9953C47.57 15.5138 46.6313 16.8778 45.1793 17.9191C43.742 18.9458 42.1507 19.4591 40.4053 19.4591ZM53.9204 19.4371C52.5857 19.4371 51.5591 18.9898 50.8404 18.0951C50.1217 17.2005 49.7624 15.9905 49.7624 14.4651V8.19513H53.0844V13.8931C53.0844 15.5798 53.6491 16.4231 54.7784 16.4231C56.1571 16.4231 56.8464 15.4625 56.8464 13.5411V8.19513H60.1684V19.1951H56.8464V18.0731C56.2157 18.9825 55.2404 19.4371 53.9204 19.4371ZM67.3364 19.4371C65.8698 19.4371 64.6598 19.0778 63.7064 18.3591C62.7678 17.6258 62.2691 16.7091 62.2104 15.6091H65.7084C65.7378 16.0345 65.9138 16.3645 66.2364 16.5991C66.5591 16.8191 66.9624 16.9291 67.4464 16.9291C68.2678 16.9291 68.6784 16.6945 68.6784 16.2251C68.6784 15.9905 68.5831 15.8145 68.3924 15.6971C68.2164 15.5651 67.8938 15.4331 67.4244 15.3011L65.2024 14.7291C63.3544 14.2451 62.4304 13.0938 62.4304 11.2751C62.4304 10.2925 62.8411 9.49313 63.6624 8.87713C64.4838 8.26113 65.6058 7.95313 67.0284 7.95313C68.2898 7.95313 69.3384 8.26846 70.1744 8.89913C71.0251 9.51513 71.4944 10.3878 71.5824 11.5171H68.2384C68.1064 10.8425 67.6811 10.5051 66.9624 10.5051C66.2144 10.5051 65.8404 10.7398 65.8404 11.2091C65.8404 11.6198 66.2144 11.9058 66.9624 12.0671L68.9644 12.5951C70.0644 12.8885 70.8564 13.3138 71.3404 13.8711C71.8244 14.4285 72.0664 15.1545 72.0664 16.0491C72.0664 17.0611 71.6264 17.8825 70.7464 18.5131C69.8664 19.1291 68.7298 19.4371 67.3364 19.4371ZM79.438 19.3271C78.1473 19.3271 77.084 18.9751 76.248 18.2711C75.4267 17.5525 75.016 16.5185 75.016 15.1691V11.0771H72.816V8.19513H75.016V5.13713H78.338V8.19513H81.418V11.0771H78.338V14.4871C78.338 15.1471 78.4847 15.6238 78.778 15.9171C79.0713 16.2105 79.548 16.3571 80.208 16.3571C80.7067 16.3571 81.11 16.2911 81.418 16.1591V19.1071C80.934 19.2538 80.274 19.3271 79.438 19.3271ZM92.5631 17.7871C91.4337 18.8871 90.0697 19.4371 88.4711 19.4371C86.8724 19.4371 85.5084 18.8871 84.3791 17.7871C83.2497 16.6725 82.6851 15.3085 82.6851 13.6951C82.6851 12.0818 83.2497 10.7251 84.3791 9.62513C85.5084 8.51046 86.8724 7.95313 88.4711 7.95313C90.0697 7.95313 91.4337 8.51046 92.5631 9.62513C93.6924 10.7251 94.2571 12.0818 94.2571 13.6951C94.2571 15.3085 93.6924 16.6725 92.5631 17.7871ZM86.7111 15.6091C87.1804 16.0931 87.7671 16.3351 88.4711 16.3351C89.1751 16.3351 89.7544 16.0931 90.2091 15.6091C90.6784 15.1251 90.9131 14.4871 90.9131 13.6951C90.9131 12.9031 90.6784 12.2651 90.2091 11.7811C89.7544 11.2971 89.1751 11.0551 88.4711 11.0551C87.7671 11.0551 87.1804 11.2971 86.7111 11.7811C86.2564 12.2651 86.0291 12.9031 86.0291 13.6951C86.0291 14.4871 86.2564 15.1251 86.7111 15.6091ZM110.073 19.1951V13.4971C110.073 11.8105 109.545 10.9671 108.489 10.9671C107.227 10.9671 106.567 11.8838 106.509 13.7171V19.1951H103.187V13.4971C103.187 11.8105 102.659 10.9671 101.603 10.9671C100.987 10.9671 100.503 11.2091 100.151 11.6931C99.7986 12.1625 99.6226 12.8811 99.6226 13.8491V19.1951H96.3006V8.19513H99.6226V9.31713C100.327 8.4078 101.265 7.95313 102.439 7.95313C103.979 7.95313 105.108 8.59846 105.827 9.88913C106.149 9.25846 106.633 8.7818 107.279 8.45913C107.924 8.1218 108.569 7.95313 109.215 7.95313C110.549 7.95313 111.576 8.39313 112.295 9.27313C113.028 10.1531 113.395 11.3705 113.395 12.9251V19.1951H110.073ZM117.63 6.69913C117.073 6.69913 116.589 6.50113 116.178 6.10513C115.768 5.69446 115.562 5.20313 115.562 4.63113C115.562 4.05913 115.768 3.57513 116.178 3.17913C116.589 2.76846 117.073 2.56313 117.63 2.56313C118.217 2.56313 118.708 2.76846 119.104 3.17913C119.515 3.57513 119.72 4.05913 119.72 4.63113C119.72 5.20313 119.515 5.69446 119.104 6.10513C118.708 6.50113 118.217 6.69913 117.63 6.69913ZM115.98 19.1951V8.19513H119.302V19.1951H115.98ZM121.577 19.1951V16.5991L126.395 11.1871H121.643V8.19513H130.707V10.8131L125.889 16.2031H130.883V19.1951H121.577ZM138.102 19.4371C136.4 19.4371 135 18.8945 133.9 17.8091C132.814 16.7238 132.272 15.3451 132.272 13.6731C132.272 12.0305 132.822 10.6665 133.922 9.58113C135.036 8.4958 136.43 7.95313 138.102 7.95313C138.908 7.95313 139.664 8.09246 140.368 8.37113C141.086 8.6498 141.717 9.05313 142.26 9.58113C142.817 10.1091 143.25 10.7911 143.558 11.6271C143.866 12.4631 144.005 13.4091 143.976 14.4651H135.506C135.564 15.0665 135.828 15.5725 136.298 15.9831C136.767 16.3791 137.427 16.5771 138.278 16.5771C138.762 16.5771 139.202 16.4818 139.598 16.2911C139.994 16.0858 140.258 15.8365 140.39 15.5431H143.866C143.514 16.7018 142.81 17.6405 141.754 18.3591C140.698 19.0778 139.48 19.4371 138.102 19.4371ZM138.014 10.5931C137.383 10.5931 136.855 10.7545 136.43 11.0771C136.019 11.3998 135.74 11.8251 135.594 12.3531H140.302C140.14 11.7518 139.84 11.3118 139.4 11.0331C138.974 10.7398 138.512 10.5931 138.014 10.5931ZM146.044 19.1951V3.57513H149.542V19.1951H146.044ZM158.006 19.3271C156.716 19.3271 155.652 18.9751 154.816 18.2711C153.995 17.5525 153.584 16.5185 153.584 15.1691V11.0771H151.384V8.19513H153.584V5.13713H156.906V8.19513H159.986V11.0771H156.906V14.4871C156.906 15.1471 157.053 15.6238 157.346 15.9171C157.64 16.2105 158.116 16.3571 158.776 16.3571C159.275 16.3571 159.678 16.2911 159.986 16.1591V19.1071C159.502 19.2538 158.842 19.3271 158.006 19.3271Z"
        fill="#4D4D4F" />
</svg>
    