<svg width="23" height="23" viewBox="0 0 23 23" fill="none" xmlns="http://www.w3.org/2000/svg">
    <path
        d="M11.789 22.6846C11.4882 22.6846 11.19 22.6747 10.9037 22.6537C10.2738 22.5994 9.68279 22.3455 9.2288 21.9343C8.77481 21.5231 8.48517 20.9794 8.40799 20.3933L8.31389 19.7858C8.26809 19.5959 8.17631 19.4184 8.04558 19.2667C7.91486 19.1151 7.74866 18.9934 7.55975 18.9111C7.3954 18.8282 7.23238 18.7403 7.07599 18.6488C6.83452 18.5021 6.5542 18.4207 6.26618 18.4137C6.13659 18.4124 6.00791 18.4342 5.88712 18.4781L5.2748 18.7057C4.92462 18.8353 4.55141 18.902 4.17474 18.9024C3.73447 18.9092 3.29925 18.8141 2.90794 18.6257C2.51663 18.4372 2.18141 18.1612 1.9322 17.8223C1.59842 17.3643 1.3016 16.8838 1.0442 16.3847C0.779993 15.8484 0.720465 15.2439 0.875518 14.6717C1.03057 14.0995 1.39085 13.5941 1.89641 13.2397L2.41464 12.8561C2.56817 12.7249 2.68733 12.5625 2.76294 12.3814C2.83855 12.2004 2.86857 12.0055 2.85069 11.8119C2.85069 11.734 2.85069 11.6474 2.85069 11.5496C2.85069 11.4519 2.85069 11.3653 2.85069 11.2873C2.86857 11.0937 2.83855 10.8989 2.76294 10.7178C2.68733 10.5368 2.56817 10.3743 2.41464 10.2431L1.89641 9.85957C1.39105 9.50495 1.03092 8.99956 0.875884 8.42741C0.720846 7.85527 0.780242 7.25082 1.0442 6.71455C1.30138 6.21533 1.59821 5.73477 1.9322 5.2769C2.18141 4.93802 2.51663 4.66203 2.90794 4.47356C3.29925 4.28509 3.73447 4.19001 4.17474 4.1968C4.55141 4.19722 4.92462 4.26396 5.2748 4.39352L5.88712 4.62117C6.00791 4.66503 6.13659 4.68687 6.26618 4.6855C6.5542 4.67852 6.83452 4.59715 7.07599 4.45043C7.23238 4.35888 7.3954 4.2698 7.55975 4.18814C7.74878 4.10594 7.91507 3.98432 8.04582 3.83267C8.17657 3.68102 8.26828 3.50338 8.31389 3.31342L8.40799 2.70718C8.48508 2.12084 8.77462 1.57672 9.22856 1.16512C9.68251 0.753517 10.2736 0.499178 10.9037 0.444305C11.1953 0.42451 11.4921 0.414612 11.789 0.414612C12.0859 0.414612 12.3841 0.42451 12.6757 0.444305C13.3055 0.498951 13.8964 0.753085 14.3502 1.1645C14.8039 1.57591 15.0932 2.11984 15.1701 2.70595L15.2655 3.31219C15.3105 3.5022 15.4018 3.67997 15.5324 3.83167C15.663 3.98338 15.8292 4.10494 16.0183 4.1869C16.176 4.26485 16.3351 4.35145 16.5034 4.44919C16.7449 4.59591 17.0252 4.67728 17.3132 4.68427C17.4432 4.6857 17.5724 4.66386 17.6936 4.61993L18.3046 4.39228C18.6548 4.26281 19.028 4.19607 19.4046 4.19556C19.8449 4.18888 20.2801 4.28401 20.6714 4.47247C21.0626 4.66093 21.3979 4.93686 21.6472 5.27566C21.9821 5.73345 22.2798 6.21402 22.5378 6.71331C22.8018 7.24958 22.8612 7.85403 22.7062 8.42618C22.5511 8.99833 22.191 9.50371 21.6856 9.85833L21.1661 10.2419C21.0126 10.3731 20.8936 10.5356 20.8182 10.7166C20.7428 10.8977 20.7131 11.0926 20.7313 11.2861C20.7313 11.3727 20.7313 11.4605 20.7313 11.5484C20.7313 11.6362 20.7313 11.7241 20.7313 11.8107C20.7131 12.0042 20.7428 12.199 20.8182 12.3801C20.8936 12.5612 21.0126 12.7236 21.1661 12.8549L21.6856 13.2384C22.1912 13.5929 22.5515 14.0983 22.7065 14.6705C22.8616 15.2427 22.802 15.8472 22.5378 16.3834C22.2796 16.8826 21.9819 17.3632 21.6472 17.8211C21.3979 18.1599 21.0626 18.4358 20.6714 18.6243C20.2801 18.8127 19.8449 18.9079 19.4046 18.9012C19.028 18.9007 18.6548 18.8339 18.3046 18.7045L17.6936 18.4768C17.5724 18.4329 17.4432 18.411 17.3132 18.4125C17.0252 18.4195 16.7449 18.5008 16.5034 18.6476C16.3337 18.7465 16.176 18.8319 16.0183 18.9098C15.8294 18.992 15.6633 19.1137 15.5327 19.2653C15.4022 19.417 15.3108 19.5947 15.2655 19.7846L15.1701 20.392C15.0934 20.9781 14.8041 21.522 14.3503 21.9332C13.8965 22.3445 13.3055 22.5983 12.6757 22.6524C12.3894 22.6747 12.0912 22.6846 11.789 22.6846ZM6.25823 16.5554C6.91933 16.5647 7.56494 16.7436 8.12436 17.0726C8.27413 17.1579 8.38944 17.221 8.50077 17.2755C8.96572 17.4924 9.36926 17.8088 9.67855 18.1987C9.98785 18.5887 10.1942 19.0413 10.2807 19.5198L10.3749 20.126C10.3884 20.2935 10.4623 20.4517 10.5846 20.5748C10.7069 20.698 10.8703 20.7788 11.0481 20.804C11.2867 20.8201 11.5359 20.8288 11.789 20.8288C12.0422 20.8288 12.2913 20.8201 12.5299 20.804C12.7077 20.7788 12.8711 20.698 12.9934 20.5748C13.1157 20.4517 13.1897 20.2935 13.2032 20.126L13.2973 19.5198C13.3841 19.0413 13.5907 18.5886 13.9002 18.1986C14.2097 17.8086 14.6135 17.4924 15.0786 17.2755C15.1992 17.2149 15.3172 17.1518 15.4563 17.0726C16.0152 16.7435 16.6605 16.5646 17.3212 16.5554C17.7006 16.5544 18.0767 16.6212 18.4292 16.7521L19.0402 16.9798C19.1555 17.0238 19.2787 17.0469 19.4033 17.0478C19.5199 17.0514 19.6357 17.0285 19.7408 16.9811C19.8458 16.9337 19.9369 16.8632 20.0064 16.7756C20.2849 16.3942 20.5326 15.9939 20.7473 15.578C20.8143 15.4224 20.8219 15.25 20.7688 15.0898C20.7157 14.9296 20.6051 14.7914 20.4557 14.6983L19.9361 14.3136C19.5351 14.0053 19.2179 13.6127 19.0106 13.168C18.8032 12.7233 18.7116 12.2391 18.7433 11.755V11.5496V11.3442C18.7117 10.86 18.8034 10.3756 19.0107 9.93073C19.218 9.48584 19.5351 9.09304 19.9361 8.78442L20.4557 8.40088C20.6052 8.30762 20.7158 8.16915 20.7689 8.00874C20.822 7.84832 20.8144 7.67574 20.7473 7.51998C20.5326 7.10409 20.285 6.70377 20.0064 6.32235C19.9369 6.23449 19.8456 6.16371 19.7403 6.11608C19.635 6.06845 19.5189 6.0454 19.402 6.04892C19.2778 6.0499 19.155 6.073 19.0402 6.11697L18.4292 6.34586C18.0762 6.47675 17.6996 6.54352 17.3198 6.54257C16.6595 6.53363 16.0147 6.35467 15.4563 6.02541C15.3371 5.9586 15.2085 5.88808 15.0786 5.82127C14.6135 5.60495 14.2098 5.28914 13.9002 4.89956C13.5907 4.50998 13.3841 4.05766 13.2973 3.57943L13.2032 2.97319C13.191 2.80544 13.1175 2.64669 12.995 2.5235C12.8724 2.4003 12.7082 2.32014 12.5299 2.29643C12.2913 2.28034 12.0422 2.27168 11.789 2.27168C11.5359 2.27168 11.2867 2.28034 11.0481 2.29643C10.8698 2.32014 10.7057 2.4003 10.5831 2.5235C10.4605 2.64669 10.387 2.80544 10.3749 2.97319L10.2807 3.57943C10.1945 4.05767 9.98847 4.51014 9.67938 4.89994C9.37028 5.28974 8.9669 5.60585 8.50209 5.82251C8.38944 5.87818 8.27015 5.94623 8.12569 6.02665C7.56685 6.35583 6.9216 6.53477 6.26088 6.54381C5.88143 6.54408 5.50539 6.4769 5.15286 6.34586L4.54319 6.11697C4.42829 6.07309 4.3055 6.04999 4.18136 6.04892C4.06442 6.0453 3.94829 6.0683 3.84299 6.11593C3.7377 6.16357 3.6464 6.23441 3.57699 6.32235C3.29801 6.70376 3.04991 7.10408 2.83478 7.51998C2.76841 7.67583 2.76114 7.84818 2.81418 8.00842C2.86722 8.16866 2.97738 8.30715 3.12636 8.40088L3.64591 8.78442C4.04709 9.09291 4.36432 9.48569 4.57164 9.93061C4.77897 10.3755 4.8705 10.8599 4.83875 11.3442V11.5496V11.755C4.87061 12.2391 4.77912 12.7234 4.57178 13.1681C4.36444 13.6129 4.04715 14.0054 3.64591 14.3136L3.12636 14.6983C2.9773 14.7917 2.86703 14.93 2.81397 15.0901C2.76091 15.2501 2.76825 15.4224 2.83478 15.578C3.04969 15.994 3.29779 16.3944 3.57699 16.7756C3.64634 16.8632 3.73747 16.9338 3.84252 16.9812C3.94758 17.0286 4.06341 17.0515 4.18004 17.0478C4.30462 17.0469 4.42786 17.0238 4.54319 16.9798L5.15286 16.7521C5.50458 16.6216 5.87973 16.5548 6.25823 16.5554ZM11.789 16.1842C10.8058 16.1842 9.84466 15.912 9.0272 15.402C8.20975 14.892 7.57271 14.1671 7.19669 13.319C6.82067 12.4709 6.72255 11.5378 6.91476 10.6377C7.10696 9.73758 7.58085 8.91089 8.27647 8.26223C8.97209 7.61357 9.85818 7.17209 10.8227 6.99363C11.7871 6.81517 12.7866 6.90775 13.6947 7.25967C14.6028 7.61159 15.3787 8.20702 15.9241 8.97065C16.4696 9.73428 16.7602 10.6318 16.7592 11.5496C16.7578 12.7797 16.2337 13.959 15.3019 14.8288C14.3701 15.6987 13.1068 16.1879 11.789 16.1892V16.1842ZM11.789 8.76091C11.1995 8.76091 10.6231 8.92405 10.1328 9.22972C9.64253 9.53538 9.2603 9.96985 9.03444 10.4782C8.80858 10.9866 8.74921 11.5461 8.86385 12.0859C8.97848 12.6258 9.26198 13.1218 9.6785 13.5113C10.095 13.9008 10.6259 14.1663 11.204 14.2743C11.7821 14.3823 12.3816 14.3279 12.9266 14.1179C13.4716 13.908 13.9377 13.552 14.266 13.0948C14.5943 12.6377 14.7701 12.1 14.7711 11.5496C14.7701 10.8116 14.4556 10.1041 13.8965 9.58229C13.3375 9.06045 12.5796 8.76684 11.789 8.76586V8.76091Z"
        fill="#EFBB40" />
</svg>
    