<svg width="16" height="12" viewBox="0 0 16 12" fill="none" xmlns="http://www.w3.org/2000/svg">
    <path
        d="M7.66698 11.331C7.62567 11.3308 7.58481 11.3226 7.54671 11.3066C7.50862 11.2906 7.47405 11.2673 7.44498 11.238L5.43898 9.21598C5.40817 9.18608 5.3839 9.15011 5.36772 9.11035C5.35154 9.07058 5.3438 9.02789 5.34498 8.98498C5.34547 8.94235 5.35459 8.90027 5.37177 8.86126C5.38896 8.82224 5.41386 8.78711 5.44498 8.75798C6.06532 8.23372 6.85128 7.94609 7.66348 7.94609C8.47568 7.94609 9.26163 8.23372 9.88198 8.75798C9.91374 8.7868 9.93927 8.82181 9.95702 8.86085C9.97478 8.8999 9.98437 8.94216 9.98521 8.98504C9.98605 9.02792 9.97813 9.07052 9.96192 9.11023C9.94572 9.14994 9.92158 9.18593 9.89098 9.21598L7.88898 11.238C7.85991 11.2673 7.82534 11.2906 7.78724 11.3066C7.74915 11.3226 7.70828 11.3308 7.66698 11.331ZM11.19 7.78198C11.11 7.78185 11.033 7.75107 10.975 7.69598C10.0689 6.87635 8.89074 6.4225 7.66898 6.4225C6.44722 6.4225 5.26901 6.87635 4.36298 7.69598C4.30494 7.75107 4.228 7.78185 4.14798 7.78198C4.1071 7.78217 4.0666 7.77422 4.02883 7.75859C3.99106 7.74297 3.95677 7.71998 3.92798 7.69098L2.76798 6.51998C2.73738 6.49 2.71307 6.45421 2.69647 6.41472C2.67988 6.37522 2.67133 6.33282 2.67133 6.28998C2.67133 6.24714 2.67988 6.20473 2.69647 6.16524C2.71307 6.12574 2.73738 6.08996 2.76798 6.05998C4.09844 4.82375 5.84733 4.13665 7.66348 4.13665C9.47962 4.13665 11.2285 4.82375 12.559 6.05998C12.5901 6.08971 12.615 6.12538 12.6322 6.16488C12.6494 6.20437 12.6585 6.24691 12.659 6.28998C12.6594 6.33272 12.6511 6.37511 12.6348 6.41462C12.6185 6.45413 12.5944 6.48996 12.564 6.51998L11.409 7.69098C11.3803 7.71982 11.3461 7.74271 11.3086 7.75832C11.271 7.77394 11.2307 7.78198 11.19 7.78198ZM13.859 5.08898C13.8191 5.08934 13.7795 5.08174 13.7426 5.06663C13.7057 5.05152 13.6722 5.0292 13.644 5.00098C12.0309 3.46896 9.89114 2.61477 7.66648 2.61477C5.44181 2.61477 3.30206 3.46896 1.68898 5.00098C1.66045 5.02961 1.62656 5.05233 1.58923 5.06783C1.55191 5.08333 1.51189 5.09131 1.47148 5.09131C1.43106 5.09131 1.39104 5.08333 1.35372 5.06783C1.3164 5.05233 1.2825 5.02961 1.25398 5.00098L0.0939766 3.83098C0.063952 3.80098 0.0401335 3.76536 0.0238828 3.72615C0.00763202 3.68694 -0.000732422 3.64492 -0.000732422 3.60248C-0.000732422 3.56004 0.00763202 3.51801 0.0238828 3.4788C0.0401335 3.43959 0.063952 3.40397 0.0939766 3.37398C2.13168 1.42339 4.84365 0.334595 7.66448 0.334595C10.4853 0.334595 13.1973 1.42339 15.235 3.37398C15.265 3.40397 15.2888 3.43959 15.3051 3.4788C15.3213 3.51801 15.3297 3.56004 15.3297 3.60248C15.3297 3.64492 15.3213 3.68694 15.3051 3.72615C15.2888 3.76536 15.265 3.80098 15.235 3.83098L14.074 5.00098C14.0167 5.05743 13.9394 5.08905 13.859 5.08898Z"
        fill="black" />
</svg>
    