<svg width="24" height="24" viewBox="0 0 24 24" fill="none" xmlns="http://www.w3.org/2000/svg">
    <path
        d="M0.5 12C0.5 14.4591 0.632416 16.401 0.973435 17.9355C1.31319 19.4643 1.85333 20.5577 2.6478 21.3522C3.44228 22.1467 4.53573 22.6868 6.06451 23.0266C7.59896 23.3676 9.54091 23.5 12 23.5C14.4591 23.5 16.401 23.3676 17.9355 23.0266C19.4643 22.6868 20.5577 22.1467 21.3522 21.3522C22.1467 20.5577 22.6868 19.4643 23.0266 17.9355C23.3676 16.401 23.5 14.4591 23.5 12C23.5 9.54091 23.3676 7.59896 23.0266 6.06451C22.6868 4.53573 22.1467 3.44228 21.3522 2.6478C20.5577 1.85333 19.4643 1.31319 17.9355 0.973434C16.401 0.632416 14.4591 0.5 12 0.5C9.54091 0.5 7.59896 0.632416 6.06451 0.973434C4.53573 1.31319 3.44228 1.85333 2.6478 2.6478C1.85333 3.44228 1.31319 4.53573 0.973435 6.06451C0.632416 7.59896 0.5 9.54091 0.5 12Z"
        stroke="#212135" stroke-linecap="round" stroke-linejoin="round" />
    <path
        d="M11.1577 8.18182L12.9195 6.33429C13.3244 5.90978 14.0046 5.88646 14.4388 6.2822L17.658 9.21592C18.0923 9.61167 18.1161 10.2766 17.7113 10.7011L15.8182 12.6864M11.1577 8.18182L6.28868 13.2877C6.08633 13.4999 5.98271 13.7844 6.00236 14.0738L6.20234 17.0187C6.23993 17.5724 6.71141 18.0021 7.27903 18L10.2983 17.9888C10.595 17.9877 10.8781 17.8667 11.0805 17.6545L15.8182 12.6864M11.1577 8.18182L15.8182 12.6864"
        stroke="#212135" stroke-linejoin="round" />
</svg>