<svg width="20" height="20" viewBox="0 0 20 20" fill="none" xmlns="http://www.w3.org/2000/svg">
<path d="M10 19C7.96407 19 6.39629 18.8896 5.18031 18.6194C3.97568 18.3516 3.1785 17.9405 2.61898 17.381C2.05947 16.8215 1.64835 16.0243 1.38064 14.8197C1.11039 13.6037 1 12.0359 1 10C1 7.96407 1.11039 6.39629 1.38064 5.18031C1.64835 3.97568 2.05947 3.1785 2.61898 2.61898C3.1785 2.05947 3.97568 1.64835 5.18031 1.38064C6.39629 1.11039 7.96407 1 10 1C12.0359 1 13.6037 1.11039 14.8197 1.38064C16.0243 1.64835 16.8215 2.05947 17.381 2.61898C17.9405 3.1785 18.3516 3.97568 18.6194 5.18031C18.8896 6.39629 19 7.96407 19 10C19 12.0359 18.8896 13.6037 18.6194 14.8197C18.3516 16.0243 17.9405 16.8215 17.381 17.381C16.8215 17.9405 16.0243 18.3516 14.8197 18.6194C13.6037 18.8896 12.0359 19 10 19Z" stroke="#1A1A1C" stroke-width="2" stroke-linecap="round" stroke-linejoin="round"/>
<path d="M5.83325 5.83331H8.33325" stroke="#1A1A1C" stroke-width="2" stroke-linecap="round" stroke-linejoin="round"/>
<path d="M5.83325 10H14.1666" stroke="#1A1A1C" stroke-width="2" stroke-linecap="round" stroke-linejoin="round"/>
<path d="M11.6667 14.1667L14.1667 14.1667" stroke="#1A1A1C" stroke-width="2" stroke-linecap="round" stroke-linejoin="round"/>
</svg>
