<svg width="20" height="20" viewBox="0 0 20 20" fill="none" xmlns="http://www.w3.org/2000/svg">
    <path
        d="M15.8333 9.16671H7.5L10.2417 6.42505C10.3198 6.34758 10.3818 6.25541 10.4241 6.15386C10.4664 6.05231 10.4882 5.94339 10.4882 5.83338C10.4882 5.72337 10.4664 5.61445 10.4241 5.5129C10.3818 5.41135 10.3198 5.31919 10.2417 5.24172C10.0855 5.08651 9.87432 4.99939 9.65417 4.99939C9.43401 4.99939 9.2228 5.08651 9.06667 5.24172L5.49167 8.82505C5.17868 9.13617 5.00186 9.55873 5 10C5.00406 10.4385 5.1807 10.8576 5.49167 11.1667L9.06667 14.75C9.14437 14.8272 9.2365 14.8883 9.33781 14.9298C9.43912 14.9714 9.54762 14.9926 9.65711 14.9922C9.76661 14.9918 9.87496 14.9698 9.97597 14.9276C10.077 14.8853 10.1687 14.8236 10.2458 14.7459C10.323 14.6682 10.3841 14.576 10.4256 14.4747C10.4672 14.3734 10.4883 14.2649 10.488 14.1554C10.4876 14.0459 10.4656 13.9376 10.4234 13.8366C10.3811 13.7356 10.3194 13.6439 10.2417 13.5667L7.5 10.8334H15.8333C16.0543 10.8334 16.2663 10.7456 16.4226 10.5893C16.5789 10.433 16.6667 10.2211 16.6667 10C16.6667 9.77903 16.5789 9.56707 16.4226 9.41079C16.2663 9.25451 16.0543 9.16671 15.8333 9.16671Z"
        fill="black" />
</svg>
    