<svg width="17" height="12" viewBox="0 0 17 12" fill="none" xmlns="http://www.w3.org/2000/svg">
    <path
        d="M16 11.334H15C14.7348 11.334 14.4804 11.2286 14.2929 11.0411C14.1054 10.8536 14 10.5992 14 10.334V1.66699C14 1.40178 14.1054 1.14742 14.2929 0.959885C14.4804 0.772349 14.7348 0.666992 15 0.666992H16C16.2652 0.666992 16.5196 0.772349 16.7071 0.959885C16.8946 1.14742 17 1.40178 17 1.66699V10.334C17 10.5992 16.8946 10.8536 16.7071 11.0411C16.5196 11.2286 16.2652 11.334 16 11.334ZM11.333 11.334H10.333C10.0678 11.334 9.81343 11.2286 9.62589 11.0411C9.43836 10.8536 9.333 10.5992 9.333 10.334V4.00099C9.333 3.73578 9.43836 3.48142 9.62589 3.29389C9.81343 3.10635 10.0678 3.00099 10.333 3.00099H11.333C11.5982 3.00099 11.8526 3.10635 12.0401 3.29389C12.2276 3.48142 12.333 3.73578 12.333 4.00099V10.334C12.333 10.599 12.2278 10.8532 12.0405 11.0407C11.8531 11.2283 11.599 11.3337 11.334 11.334H11.333ZM6.666 11.334H5.666C5.40078 11.334 5.14643 11.2286 4.95889 11.0411C4.77136 10.8536 4.666 10.5992 4.666 10.334V6.33399C4.666 6.06878 4.77136 5.81442 4.95889 5.62689C5.14643 5.43935 5.40078 5.33399 5.666 5.33399H6.666C6.93122 5.33399 7.18557 5.43935 7.37311 5.62689C7.56064 5.81442 7.666 6.06878 7.666 6.33399V10.334C7.666 10.5992 7.56064 10.8536 7.37311 11.0411C7.18557 11.2286 6.93122 11.334 6.666 11.334ZM2 11.334H1C0.734784 11.334 0.48043 11.2286 0.292893 11.0411C0.105357 10.8536 0 10.5992 0 10.334V8.33399C0 8.06878 0.105357 7.81442 0.292893 7.62689C0.48043 7.43935 0.734784 7.33399 1 7.33399H2C2.26522 7.33399 2.51957 7.43935 2.70711 7.62689C2.89464 7.81442 3 8.06878 3 8.33399V10.334C3 10.5992 2.89464 10.8536 2.70711 11.0411C2.51957 11.2286 2.26522 11.334 2 11.334Z"
        fill="black" />
</svg>
    